<svg width="34" height="34" viewBox="0 0 34 34" fill="none" xmlns="http://www.w3.org/2000/svg">
<path d="M6.3079 4.54487C5.90926 4.92711 5.89596 5.56013 6.2782 5.95877C6.66044 6.35741 7.29347 6.3707 7.6921 5.98846L6.3079 4.54487ZM7.6921 28.0115C7.29347 27.6293 6.66044 27.6426 6.2782 28.0412C5.89596 28.4399 5.90926 29.0729 6.3079 29.4551L7.6921 28.0115ZM1 16C0.447715 16 0 16.4477 0 17C0 17.5523 0.447715 18 1 18V16ZM23 17L23.7071 17.7071C24.0976 17.3166 24.0976 16.6834 23.7071 16.2929L23 17ZM16.2929 22.2929C15.9024 22.6834 15.9024 23.3166 16.2929 23.7071C16.6834 24.0976 17.3166 24.0976 17.7071 23.7071L16.2929 22.2929ZM17.7071 10.2929C17.3166 9.90237 16.6834 9.90237 16.2929 10.2929C15.9024 10.6834 15.9024 11.3166 16.2929 11.7071L17.7071 10.2929ZM32 17C32 25.3158 25.4872 32 17.5227 32V34C26.6539 34 34 26.3573 34 17H32ZM17.5227 2C25.4872 2 32 8.68416 32 17H34C34 7.64273 26.6539 0 17.5227 0V2ZM7.6921 5.98846C10.2781 3.50887 13.7316 2 17.5227 2V0C13.1867 0 9.2448 1.72879 6.3079 4.54487L7.6921 5.98846ZM17.5227 32C13.7316 32 10.2781 30.4911 7.6921 28.0115L6.3079 29.4551C9.2448 32.2712 13.1867 34 17.5227 34V32ZM1 18H23V16H1V18ZM22.2929 16.2929L16.2929 22.2929L17.7071 23.7071L23.7071 17.7071L22.2929 16.2929ZM23.7071 16.2929L17.7071 10.2929L16.2929 11.7071L22.2929 17.7071L23.7071 16.2929Z" fill="white"/>
</svg>
