<svg width="219" height="50" viewBox="0 0 219 50" fill="none" xmlns="http://www.w3.org/2000/svg">
<path d="M15.3185 23.6627C14.2516 23.9485 13.6184 25.0449 13.9043 26.1116C14.1902 27.1782 15.2869 27.8113 16.3538 27.5254L36.5964 22.1028C37.6634 21.817 38.2965 20.7206 38.0107 19.654C37.7248 18.5873 36.6281 17.9543 35.5612 18.2401L15.3185 23.6627Z" fill="#B1C909"/>
<path d="M15.6301 32.5508C15.3442 31.4841 15.9774 30.3877 17.0443 30.1019L37.287 24.6793C38.3539 24.3935 39.4506 25.0265 39.7365 26.0932C40.0224 27.1598 39.3892 28.2562 38.3223 28.542L18.0796 33.9647C17.0127 34.2505 15.916 33.6175 15.6301 32.5508Z" fill="#B1C909"/>
<path d="M24.2909 35.0622C23.2239 35.348 22.5908 36.4444 22.8767 37.5111C23.1625 38.5778 24.2592 39.2108 25.3261 38.925L34.5274 36.4601C35.5943 36.1743 36.2275 35.0779 35.9416 34.0113C35.6557 32.9446 34.559 32.3116 33.4921 32.5974L24.2909 35.0622Z" fill="#B1C909"/>
<path fill-rule="evenodd" clip-rule="evenodd" d="M46.068 9.60809L26.7278 0L5.93143 5.57094C1.6637 6.71419 -0.868955 11.0998 0.274579 15.3664L7.96766 44.0701C9.1112 48.3367 13.4979 50.8687 17.7656 49.7255L46.4766 42.0344C50.7443 40.8911 53.277 36.5055 52.1335 32.2389L46.068 9.60809ZM6.96671 9.43366L25.8312 4.38023L27.4588 10.4531C28.3165 13.6531 31.6065 15.5521 34.8073 14.6946L42.722 12.5745L48.2698 33.2739C48.8415 35.4072 47.5752 37.6 45.4413 38.1716L16.7304 45.8628C14.5965 46.4344 12.4031 45.1684 11.8314 43.0351L4.13828 14.3314C3.56651 12.1981 4.83285 10.0053 6.96671 9.43366ZM30.497 6.33804L37.5212 9.82759L33.772 10.8319C32.7051 11.1177 31.6084 10.4847 31.3225 9.41807L30.497 6.33804Z" fill="#B1C909"/>
<path d="M210.161 35.4133C208.731 35.4133 207.334 35.2427 205.969 34.9015C204.603 34.5389 203.515 34.091 202.705 33.5578L204.369 29.9747C205.137 30.4653 206.065 30.8705 207.153 31.1904C208.241 31.489 209.307 31.6383 210.353 31.6383C212.465 31.6383 213.521 31.1158 213.521 30.0707C213.521 29.5802 213.233 29.2283 212.657 29.015C212.081 28.8017 211.195 28.6204 210.001 28.4711C208.593 28.2578 207.43 28.0126 206.513 27.7353C205.595 27.458 204.795 26.9675 204.113 26.2637C203.451 25.5599 203.121 24.5574 203.121 23.2564C203.121 22.1687 203.43 21.209 204.049 20.3772C204.689 19.5241 205.606 18.8629 206.801 18.3937C208.017 17.9245 209.446 17.6899 211.089 17.6899C212.305 17.6899 213.51 17.8285 214.705 18.1058C215.921 18.3617 216.923 18.7243 217.713 19.1935L216.049 22.7446C214.534 21.8915 212.881 21.4649 211.089 21.4649C210.022 21.4649 209.222 21.6142 208.689 21.9128C208.155 22.2114 207.889 22.5953 207.889 23.0645C207.889 23.5977 208.177 23.9709 208.753 24.1842C209.329 24.3975 210.246 24.6001 211.505 24.7921C212.913 25.0267 214.065 25.2826 214.961 25.5599C215.857 25.8158 216.635 26.2957 217.297 26.9995C217.958 27.7033 218.289 28.6844 218.289 29.9427C218.289 31.0091 217.969 31.9582 217.329 32.79C216.689 33.6218 215.75 34.2723 214.513 34.7415C213.297 35.1894 211.846 35.4133 210.161 35.4133Z" fill="#B1C909"/>
<path d="M192.853 31.4144C193.749 31.4144 194.538 31.2864 195.221 31.0305C195.925 30.7532 196.576 30.3266 197.173 29.7508L199.829 32.6301C198.208 34.4856 195.84 35.4133 192.725 35.4133C190.784 35.4133 189.066 35.0401 187.573 34.2936C186.08 33.5258 184.928 32.4701 184.117 31.1264C183.306 29.7828 182.901 28.2578 182.901 26.5516C182.901 24.8667 183.296 23.3524 184.085 22.0088C184.896 20.6438 185.994 19.588 187.381 18.8416C188.789 18.0738 190.368 17.6899 192.117 17.6899C193.76 17.6899 195.253 18.0418 196.597 18.7456C197.941 19.4281 199.008 20.4305 199.797 21.7528C200.608 23.0538 201.013 24.6001 201.013 26.3916L188.277 28.855C188.64 29.7081 189.205 30.348 189.973 30.7745C190.762 31.2011 191.722 31.4144 192.853 31.4144ZM192.117 21.4649C190.858 21.4649 189.834 21.8701 189.045 22.6806C188.256 23.4911 187.84 24.6108 187.797 26.0397L196.181 24.4081C195.946 23.5124 195.466 22.7979 194.741 22.2647C194.016 21.7315 193.141 21.4649 192.117 21.4649Z" fill="#B1C909"/>
<path d="M181.893 34.3256C181.402 34.6882 180.794 34.9655 180.069 35.1574C179.365 35.328 178.629 35.4133 177.861 35.4133C175.791 35.4133 174.202 34.8908 173.093 33.8457C171.983 32.8007 171.429 31.2651 171.429 29.2389V14.1388H176.421V18.3297H180.677V22.1687H176.421V29.1749C176.421 29.9001 176.602 30.4653 176.965 30.8705C177.327 31.2544 177.85 31.4464 178.533 31.4464C179.301 31.4464 179.983 31.2331 180.581 30.8065L181.893 34.3256Z" fill="#B1C909"/>
<path d="M158.748 35.4133C156.935 35.4133 155.303 35.0401 153.852 34.2936C152.423 33.5258 151.303 32.4701 150.492 31.1264C149.681 29.7828 149.276 28.2578 149.276 26.5516C149.276 24.8454 149.681 23.3204 150.492 21.9768C151.303 20.6331 152.423 19.588 153.852 18.8416C155.303 18.0738 156.935 17.6899 158.748 17.6899C160.561 17.6899 162.183 18.0738 163.612 18.8416C165.041 19.588 166.161 20.6331 166.972 21.9768C167.783 23.3204 168.188 24.8454 168.188 26.5516C168.188 28.2578 167.783 29.7828 166.972 31.1264C166.161 32.4701 165.041 33.5258 163.612 34.2936C162.183 35.0401 160.561 35.4133 158.748 35.4133ZM158.748 31.3184C160.028 31.3184 161.073 30.8918 161.884 30.0387C162.716 29.1643 163.132 28.0019 163.132 26.5516C163.132 25.1013 162.716 23.9496 161.884 23.0965C161.073 22.222 160.028 21.7848 158.748 21.7848C157.468 21.7848 156.412 22.222 155.58 23.0965C154.748 23.9496 154.332 25.1013 154.332 26.5516C154.332 28.0019 154.748 29.1643 155.58 30.0387C156.412 30.8918 157.468 31.3184 158.748 31.3184Z" fill="#B1C909"/>
<path d="M137.311 12.3792C139.978 12.3792 142.058 13.2217 143.551 14.9066C145.045 16.5701 145.791 18.9482 145.791 22.0408V35.1574H140.607V22.2007C140.607 20.4092 140.181 19.0655 139.327 18.1697C138.495 17.2526 137.333 16.7941 135.839 16.7941C134.261 16.7941 132.991 17.2846 132.031 18.2657C131.093 19.2255 130.623 20.6544 130.623 22.5526V35.1574H125.439V12.7631H130.463V15.4824C131.231 14.4587 132.191 13.6909 133.343 13.179C134.495 12.6458 135.818 12.3792 137.311 12.3792Z" fill="#B1C909"/>
<path d="M120.463 17.9458V32.2781C120.463 35.4347 119.663 37.7807 118.063 39.3163C116.463 40.852 114.137 41.6198 111.087 41.6198C109.465 41.6198 107.929 41.4171 106.479 41.0119C105.049 40.6067 103.844 40.0202 102.863 39.2524L104.847 35.6693C105.572 36.2665 106.457 36.7357 107.503 37.0769C108.548 37.4182 109.604 37.5888 110.671 37.5888C112.335 37.5888 113.551 37.2049 114.319 36.4371C115.087 35.6693 115.471 34.4962 115.471 32.918V32.3421C114.831 32.982 114.073 33.4725 113.199 33.8138C112.324 34.155 111.385 34.3256 110.383 34.3256C108.121 34.3256 106.329 33.6858 105.007 32.4061C103.684 31.1051 103.023 29.1643 103.023 26.5836V17.9458H108.015V25.8478C108.015 28.6417 109.177 30.0387 111.503 30.0387C112.697 30.0387 113.657 29.6548 114.383 28.887C115.108 28.0979 115.471 26.9355 115.471 25.3999V17.9458H120.463Z" fill="#B1C909"/>
<path d="M89.9761 12.3792C92.6214 12.3792 94.6801 13.1577 96.1521 14.7146C97.6241 16.2502 98.3601 18.479 98.3601 21.4009V35.1574H93.176V21.5609C93.176 19.9826 92.76 18.7989 91.928 18.0098C91.1174 17.1993 90.0401 16.7941 88.6961 16.7941C87.2241 16.7941 86.0507 17.2206 85.176 18.0738C84.3014 18.9056 83.8641 20.1746 83.8641 21.8808V35.1574H78.6801V21.5609C78.6801 19.9826 78.2961 18.7989 77.5281 18.0098C76.7601 17.1993 75.7147 16.7941 74.3921 16.7941C72.9414 16.7941 71.7787 17.2206 70.9041 18.0738C70.0294 18.9056 69.592 20.1746 69.592 21.8808V35.1574H64.4081V12.7631H69.4321V15.5144C70.1147 14.512 71.0214 13.7442 72.1521 13.211C73.2827 12.6565 74.5841 12.3792 76.0561 12.3792C77.5921 12.3792 78.9361 12.6671 80.0881 13.243C81.2401 13.7975 82.1254 14.608 82.744 15.6744C83.512 14.608 84.5147 13.7975 85.7521 13.243C87.0107 12.6671 88.4187 12.3792 89.9761 12.3792Z" fill="#B1C909"/>
</svg>
